# xmcd CD database file
#
# Track frame offsets:
#	150
#	25166
#	42144
#	63888
#	85792
#	112395
#	144074
#	169714
#	191967
#	215740
#	241350
#	263982
#
# Disc length: 3812 seconds
#
# Revision: 0
# Processed by: cddbd v1.5.2PL0 Copyright (c) Steve Scherf et al.
# Submitted via: CDex 1.51
#
DISCID=aa0ee20c
DTITLE=Audrey Martells - Soul Survivor
DYEAR=2017
DGENRE=Jazz
TTITLE0=Harlem
TTITLE1=Other Side Of The Wall
TTITLE2=Back 2 Love
TTITLE3=Superwoman
TTITLE4=If God Is A Man
TTITLE5=On Broadway
TTITLE6=Send To Nowhere
TTITLE7=Never Looking Back
TTITLE8=Caution
TTITLE9=Sweet Regine
TTITLE10=Compared To What
TTITLE11=Song For My Father
EXTD=YEAR: 2017
EXTT0=
EXTT1=
EXTT2=
EXTT3=
EXTT4=
EXTT5=
EXTT6=
EXTT7=
EXTT8=
EXTT9=
EXTT10=
EXTT11=
PLAYORDER=
